HIERARCHY
ROOT Hips
{
	OFFSET 0.00000 0.00000 0.00000
	CHANNELS 6 Xposition Yposition Zposition Zrotation Yrotation Xrotation 
	JOINT LHipJoint
	{
		OFFSET 0 0 0
		CHANNELS 3 Zrotation Yrotation Xrotation
		JOINT LeftUpLeg
		{
			OFFSET 1.37590 -1.78394 0.89329
			CHANNELS 3 Zrotation Yrotation Xrotation
			JOINT LeftLeg
			{
				OFFSET 2.47928 -6.81178 0.00000
				CHANNELS 3 Zrotation Yrotation Xrotation
				JOINT LeftFoot
				{
					OFFSET 2.63345 -7.23535 0.00000
					CHANNELS 3 Zrotation Yrotation Xrotation
					JOINT LeftToeBase
					{
						OFFSET 0.23938 -0.65768 2.27012
						CHANNELS 3 Zrotation Yrotation Xrotation
						End Site
						{
							OFFSET 0.00000 -0.00000 1.18363
						}
					}
				}
			}
		}
	}
	JOINT RHipJoint
	{
		OFFSET 0 0 0
		CHANNELS 3 Zrotation Yrotation Xrotation
		JOINT RightUpLeg
		{
			OFFSET -1.33617 -1.78394 0.89329
			CHANNELS 3 Zrotation Yrotation Xrotation
			JOINT RightLeg
			{
				OFFSET -2.56922 -7.05888 0.00000
				CHANNELS 3 Zrotation Yrotation Xrotation
				JOINT RightFoot
				{
					OFFSET -2.56568 -7.04915 0.00000
					CHANNELS 3 Zrotation Yrotation Xrotation
					JOINT RightToeBase
					{
						OFFSET -0.27533 -0.75646 2.18105
						CHANNELS 3 Zrotation Yrotation Xrotation
						End Site
						{
							OFFSET -0.00000 -0.00000 1.15233
						}
					}
				}
			}
		}
	}
	JOINT LowerBack
	{
		OFFSET 0 0 0
		CHANNELS 3 Zrotation Yrotation Xrotation
		JOINT Spine
		{
			OFFSET 0.06190 2.15152 -0.00935
			CHANNELS 3 Zrotation Yrotation Xrotation
			JOINT Spine1
			{
				OFFSET 0.06334 2.15332 0.00872
				CHANNELS 3 Zrotation Yrotation Xrotation
				JOINT Neck
				{
					OFFSET 0 0 0
					CHANNELS 3 Zrotation Yrotation Xrotation
					JOINT Neck1
					{
						OFFSET -0.04202 1.66908 0.23524
						CHANNELS 3 Zrotation Yrotation Xrotation
						JOINT Head
						{
							OFFSET 0.07510 1.69357 -0.24440
							CHANNELS 3 Zrotation Yrotation Xrotation
							End Site
							{
								OFFSET 0.02556 1.71719 -0.11000
							}
						}
					}
				}
				JOINT LeftShoulder
				{
					OFFSET 0 0 0
					CHANNELS 3 Zrotation Yrotation Xrotation
					JOINT LeftArm
					{
						OFFSET 3.67168 1.26306 -0.41342
						CHANNELS 3 Zrotation Yrotation Xrotation
						JOINT LeftForeArm
						{
							OFFSET 4.68510 -0.00000 -0.00000
							CHANNELS 3 Zrotation Yrotation Xrotation
							JOINT LeftHand
							{
								OFFSET 3.39626 -0.00000 -0.00000
								CHANNELS 3 Zrotation Yrotation Xrotation
								JOINT LeftFingerBase
								{
									OFFSET 0 0 0
									CHANNELS 3 Zrotation Yrotation Xrotation
									JOINT LeftHandIndex1
									{
										OFFSET 0.48608 -0.00000 -0.00000
										CHANNELS 3 Zrotation Yrotation Xrotation
										End Site
										{
											OFFSET 0.39189 -0.00000 -0.00000
										}
									}
								}
								JOINT LThumb
								{
									OFFSET 0 0 0
									CHANNELS 3 Zrotation Yrotation Xrotation
									End Site
									{
										OFFSET 0.39787 -0.00000 0.39787
									}
								}
							}
						}
					}
				}
				JOINT RightShoulder
				{
					OFFSET 0 0 0
					CHANNELS 3 Zrotation Yrotation Xrotation
					JOINT RightArm
					{
						OFFSET -3.04136 1.42992 -0.76390
						CHANNELS 3 Zrotation Yrotation Xrotation
						JOINT RightForeArm
						{
							OFFSET -5.55576 -0.00000 -0.00000
							CHANNELS 3 Zrotation Yrotation Xrotation
							JOINT RightHand
							{
								OFFSET -3.32774 -0.00000 -0.00000
								CHANNELS 3 Zrotation Yrotation Xrotation
								JOINT RightFingerBase
								{
									OFFSET 0 0 0
									CHANNELS 3 Zrotation Yrotation Xrotation
									JOINT RightHandIndex1
									{
										OFFSET -0.50763 -0.00000 -0.00000
										CHANNELS 3 Zrotation Yrotation Xrotation
										End Site
										{
											OFFSET -0.40926 -0.00000 -0.00000
										}
									}
								}
								JOINT RThumb
								{
									OFFSET 0 0 0
									CHANNELS 3 Zrotation Yrotation Xrotation
									End Site
									{
										OFFSET -0.41551 -0.00000 0.41551
									}
								}
							}
						}
					}
				}
			}
		}
	}
}
MOTION
Frames: 12
Frame Time: .0083333
41.3122 17.8719 6.8806 0 0 0 0 0 0 -21 0 0 0 0 0 0 0 0 0 0 0 0 0 0 21 0 0 0 0 0 0 0 0 0 0 0 0 0 0 0 0 0 0 0 0 0 0 -16 0 0 21 0 0 11 0 0 0 -8 0 0 0 0 0 0 0 0 0 0 0 0 0 0 0 0 0 0 0 0 8 0 0 0 0 0 0 0 0 0 0 0 0 0 0 0 0 0
41.3122 17.8719 6.8806 -88.3322 -84.3541 97.2684 0.0000 0.0000 0.0000 -12.4717 -6.9000 -5.3258 0.2322 3.1011 8.5604 0.2197 0.7027 -9.1364 0.2265 3.0637 8.4561 0.0000 0.0000 0.0000 26.0378 6.4305 -7.3010 -0.4952 -4.5118 12.5212 0.0834 -9.6212 -12.1734 -0.4785 -4.4362 12.3072 4.0766 -0.6542 -6.5257 3.4510 -1.2883 -2.7884 1.1756 -0.7080 0.7738 -7.8889 -4.2180 -17.9283 6.5704 -4.9160 14.2157 2.8755 -2.1630 7.6866 -0.0000 0.0000 0.0000 -88.6306 5.3150 12.0548 15.1862 -24.4048 -3.3025 -0.0000 -0.0000 22.4705 11.5885 17.0454 3.4399 -7.1250 0.0000 -0.0000 -15.4421 46.7557 -0.6850 -0.0000 0.0000 0.0000 81.5761 -1.6891 16.8762 -11.3374 18.8036 -1.8832 0.0000 0.0000 10.3520 -12.9789 -21.9044 4.9143 7.1250 -0.0000 -0.0000 16.0549 -51.6930 -2.7044
41.3029 17.8763 6.8691 -83.5036 -84.3579 92.3562 0.0000 0.0000 0.0000 -12.4056 -6.8151 -5.3062 0.2427 3.1702 8.7531 0.2279 0.1976 -9.0902 0.2020 2.8939 7.9836 0.0000 0.0000 0.0000 26.1212 6.3576 -6.9416 -0.4699 -4.3966 12.1952 0.1138 -10.0964 -12.3461 -0.4906 -4.4911 12.4624 3.9216 -0.8509 -6.5983 3.5014 -1.5464 -2.7776 1.2946 -0.8349 0.8287 -7.9243 -4.1801 -17.7152 6.5459 -4.8621 14.1118 2.8814 -2.1456 7.6119 -0.0000 0.0000 0.0000 -88.6757 5.4141 11.9005 15.1838 -24.4016 -3.3015 -0.0000 -0.0000 22.5023 11.5631 17.1234 3.4473 -7.1250 0.0000 -0.0000 -15.4924 46.8286 -0.7158 -0.0000 0.0000 0.0000 81.5342 -1.7599 16.7712 -11.3454 18.8158 -1.8858 0.0000 0.0000 10.3037 -12.9647 -21.6030 4.8448 7.1250 -0.0000 -0.0000 15.9347 -51.3979 -2.5660
41.3044 17.8761 6.8682 -83.6697 -84.3553 92.5528 0.0000 0.0000 0.0000 -12.3830 -6.8817 -5.3009 0.2370 3.1329 8.6491 0.2223 0.2571 -9.0015 0.2227 3.0377 8.3839 0.0000 0.0000 0.0000 26.1279 6.4024 -6.9455 -0.4674 -4.3853 12.1631 0.1154 -10.1173 -12.3475 -0.4849 -4.4651 12.3891 3.9213 -0.8368 -6.4620 3.4986 -1.5168 -2.8206 1.2972 -0.8220 0.7087 -7.8848 -4.1933 -17.9353 6.4695 -4.8641 14.2317 2.8475 -2.1473 7.6863 -0.0000 0.0000 0.0000 -88.6652 5.4510 11.8943 15.1903 -24.4105 -3.3042 -0.0000 -0.0000 22.4967 11.5378 17.0429 3.4240 -7.1250 0.0000 -0.0000 -15.4875 46.7467 -0.6836 -0.0000 0.0000 0.0000 81.5108 -1.8103 16.6876 -11.3805 18.8691 -1.8971 0.0000 0.0000 10.2160 -12.8668 -21.4021 4.7648 7.1250 -0.0000 -0.0000 15.9406 -51.1867 -2.4830
41.3066 17.8767 6.8673 -83.6633 -84.3358 92.5759 0.0000 0.0000 0.0000 -12.3508 -6.8854 -5.3359 0.2387 3.1442 8.6804 0.2240 0.2583 -9.0361 0.2250 3.0535 8.4279 0.0000 0.0000 0.0000 26.1522 6.4549 -6.9652 -0.4672 -4.3842 12.1601 0.1146 -10.1142 -12.3591 -0.4976 -4.5227 12.5520 4.0992 -0.7654 -6.3004 3.3791 -1.4127 -2.9934 1.0869 -0.7773 0.4336 -7.8856 -4.2335 -17.6317 6.5349 -4.9566 14.2201 2.8610 -2.1919 7.6393 0.0000 -0.0000 0.0000 -88.4972 5.6994 11.9163 15.1566 -24.3638 -3.2903 -0.0000 -0.0000 22.6252 11.4834 17.0714 3.4129 -7.1250 0.0000 -0.0000 -15.5470 46.7675 -0.6945 0.0000 -0.0000 0.0000 81.6793 -2.1766 16.5440 -11.4723 19.0086 -1.9270 0.0000 0.0000 10.1104 -12.8670 -21.6378 4.8146 7.1250 -0.0000 -0.0000 16.0440 -51.4156 -2.5914
41.3110 17.8760 6.8705 -85.2164 -84.3384 94.1759 0.0000 0.0000 0.0000 -12.3709 -6.8918 -5.3833 0.2399 3.1520 8.7021 0.2261 0.3772 -9.1253 0.2200 3.0192 8.3322 0.0000 0.0000 0.0000 26.1238 6.4904 -7.0812 -0.4725 -4.4086 12.2292 0.1056 -9.9611 -12.2832 -0.4936 -4.5043 12.5001 4.0245 -0.7670 -6.3179 3.4668 -1.4168 -2.9214 1.2174 -0.7768 0.5217 -7.8414 -4.1922 -17.9116 6.3399 -4.8506 14.2252 2.7990 -2.1510 7.6744 -0.0000 0.0000 0.0000 -88.6587 5.5505 11.7213 15.1333 -24.3315 -3.2807 -0.0000 -0.0000 22.6770 11.5392 17.0204 3.4200 -7.1250 0.0000 -0.0000 -15.4784 46.7250 -0.6747 -0.0000 0.0000 0.0000 81.4991 -1.9660 16.5909 -11.4949 19.0429 -1.9343 0.0000 0.0000 10.0453 -12.9140 -21.7008 4.8460 7.1250 -0.0000 -0.0000 16.0267 -51.4846 -2.6161
41.3133 17.8762 6.8709 -85.7161 -84.3335 94.7034 0.0000 0.0000 0.0000 -12.3659 -6.8977 -5.4100 0.2405 3.1558 8.7128 0.2269 0.4184 -9.1575 0.2197 3.0176 8.3277 0.0000 0.0000 0.0000 26.1224 6.5238 -7.1164 -0.4729 -4.4103 12.2340 0.1031 -9.9175 -12.2613 -0.4961 -4.5159 12.5327 4.0300 -0.7578 -6.2445 3.4770 -1.3993 -2.9557 1.2278 -0.7697 0.4458 -7.8282 -4.1811 -17.9728 6.2673 -4.8214 14.2558 2.7757 -2.1421 7.6905 0.0000 -0.0000 0.0000 -88.6909 5.5881 11.6224 15.1151 -24.3063 -3.2732 -0.0000 -0.0000 22.7374 11.5369 17.0163 3.4185 -7.1250 0.0000 -0.0000 -15.4790 46.7206 -0.6730 0.0000 -0.0000 0.0000 81.4528 -2.0080 16.5743 -11.5467 19.1214 -1.9513 0.0000 0.0000 9.9515 -12.9316 -21.7596 4.8653 7.1250 -0.0000 -0.0000 16.0358 -51.5445 -2.6416
41.3160 17.8761 6.8720 -86.5336 -84.3289 95.5530 0.0000 0.0000 0.0000 -12.3664 -6.9109 -5.4356 0.2401 3.1532 8.7055 0.2268 0.4969 -9.1901 0.2212 3.0275 8.3553 0.0000 0.0000 0.0000 26.1148 6.5604 -7.1715 -0.4746 -4.4183 12.2566 0.0987 -9.8427 -12.2267 -0.4981 -4.5245 12.5572 4.0384 -0.7396 -6.1627 3.4884 -1.3694 -2.9950 1.2387 -0.7566 0.3601 -7.8115 -4.1684 -18.0393 6.1864 -4.7894 14.2948 2.7494 -2.1323 7.7098 -0.0000 0.0000 0.0000 -88.7276 5.6308 11.5266 15.0955 -24.2790 -3.2651 -0.0000 -0.0000 22.7978 11.5373 17.0111 3.4176 -7.1250 0.0000 -0.0000 -15.4770 46.7156 -0.6709 -0.0000 0.0000 0.0000 81.4003 -2.0524 16.5741 -11.6047 19.2091 -1.9703 0.0000 0.0000 9.8634 -12.9315 -21.8382 4.8819 7.1250 -0.0000 -0.0000 16.0710 -51.6209 -2.6783
41.3184 17.8761 6.8730 -87.3154 -84.3249 96.3631 0.0000 0.0000 0.0000 -12.3679 -6.9265 -5.4560 0.2391 3.1471 8.6887 0.2262 0.5807 -9.2132 0.2227 3.0377 8.3836 0.0000 0.0000 0.0000 26.1071 6.5934 -7.2183 -0.4760 -4.4246 12.2743 0.0945 -9.7715 -12.1934 -0.5003 -4.5347 12.5859 4.0406 -0.7259 -6.0761 3.5021 -1.3446 -3.0438 1.2553 -0.7463 0.2620 -7.8058 -4.1504 -18.0798 6.1203 -4.7524 14.3388 2.7308 -2.1199 7.7267 0.0000 -0.0000 0.0000 -88.7677 5.6983 11.4338 15.0761 -24.2520 -3.2571 -0.0000 -0.0000 22.8541 11.5373 17.0165 3.4187 -7.1250 0.0000 -0.0000 -15.4788 46.7210 -0.6731 0.0000 -0.0000 0.0000 81.3432 -2.1170 16.6016 -11.6710 19.3095 -1.9922 0.0000 0.0000 9.7546 -12.9476 -21.9060 4.9025 7.1250 -0.0000 -0.0000 16.0859 -51.6893 -2.7083
41.3203 17.8761 6.8735 -87.9853 -84.3216 97.0574 0.0000 0.0000 0.0000 -12.3683 -6.9402 -5.4744 0.2379 3.1392 8.6666 0.2251 0.6547 -9.2231 0.2235 3.0432 8.3992 0.0000 0.0000 0.0000 26.1013 6.6239 -7.2519 -0.4766 -4.4273 12.2820 0.0913 -9.7138 -12.1633 -0.5020 -4.5423 12.6077 4.0333 -0.7179 -5.9988 3.5186 -1.3278 -3.0825 1.2793 -0.7396 0.1798 -7.7931 -4.1316 -18.1401 6.0474 -4.7136 14.3873 2.7088 -2.1067 7.7480 -0.0000 0.0000 0.0000 -88.8079 5.7519 11.3525 15.0557 -24.2237 -3.2488 -0.0000 -0.0000 22.9005 11.5331 17.0160 3.4173 -7.1250 0.0000 -0.0000 -15.4825 46.7198 -0.6728 -0.0000 0.0000 0.0000 81.2836 -2.1627 16.6312 -11.7400 19.4136 -2.0150 0.0000 0.0000 9.6471 -12.9334 -21.9285 4.9017 7.1250 -0.0000 -0.0000 16.1097 -51.7088 -2.7204
41.3217 17.8762 6.8736 -88.5879 -84.3186 97.6820 0.0000 0.0000 0.0000 -12.3671 -6.9431 -5.4943 0.2378 3.1381 8.6634 0.2249 0.7073 -9.2425 0.2240 3.0464 8.4079 0.0000 0.0000 0.0000 26.0978 6.6536 -7.2762 -0.4766 -4.4276 12.2829 0.0887 -9.6649 -12.1365 -0.5040 -4.5510 12.6323 4.0246 -0.7111 -5.9275 3.5318 -1.3127 -3.1259 1.3004 -0.7337 0.0961 -7.7832 -4.1114 -18.1724 5.9886 -4.6768 14.4330 2.6920 -2.0938 7.7642 0.0000 -0.0000 0.0000 -88.8401 5.8199 11.2857 15.0341 -24.1936 -3.2399 -0.0000 -0.0000 22.9446 11.5255 17.0110 3.4140 -7.1250 0.0000 -0.0000 -15.4877 46.7141 -0.6708 0.0000 -0.0000 0.0000 81.2303 -2.2223 16.6696 -11.8147 19.5261 -2.0399 0.0000 0.0000 9.5317 -12.9033 -21.9096 4.8860 7.1250 -0.0000 -0.0000 16.1302 -51.6855 -2.7146
41.3228 17.8764 6.8732 -89.1257 -84.3151 98.2398 0.0000 0.0000 0.0000 -12.3628 -6.9359 -5.5177 0.2386 3.1439 8.6795 0.2255 0.7386 -9.2694 0.2239 3.0460 8.4069 0.0000 0.0000 0.0000 26.0973 6.6832 -7.2932 -0.4764 -4.4264 12.2794 0.0867 -9.6259 -12.1143 -0.5054 -4.5574 12.6502 4.0192 -0.7039 -5.8559 3.5396 -1.2970 -3.1721 1.3142 -0.7277 0.0090 -7.7686 -4.0921 -18.1973 5.9354 -4.6445 14.4828 2.6758 -2.0825 7.7809 -0.0000 0.0000 0.0000 -88.8591 5.8973 11.2471 15.0138 -24.1654 -3.2316 -0.0000 -0.0000 22.9770 11.5172 16.9974 3.4089 -7.1250 0.0000 -0.0000 -15.4906 46.6998 -0.6654 -0.0000 0.0000 0.0000 81.1872 -2.2852 16.7028 -11.8914 19.6416 -2.0656 0.0000 0.0000 9.4131 -12.8707 -21.9162 4.8747 7.1250 -0.0000 -0.0000 16.1646 -51.6864 -2.7210
